<?xml version="1.0" encoding="UTF-8"?>
<svg xmlns="http://www.w3.org/2000/svg" viewBox="0 0 19.38 18.97" aria-hidden="true">
  <path fill="#91E25D" d="M15.23,10.34c-1.17,0-2.27-.34-3.19-.93-.22-.14-.51-.13-.7.05l-1.9,1.81c-.17.16-.21.41-.13.63.22.59.3,1.26.16,1.97-.27,1.45-1.46,2.61-2.91,2.86-2.36.4-4.4-1.49-4.25-3.81.12-1.76,1.57-3.23,3.33-3.36.61-.04,1.19.06,1.7.28.22.09.47.07.64-.1l1.92-1.83c.19-.18.22-.46.09-.69-.47-.85-.74-1.83-.74-2.86s.29-2.1.79-2.97C10.41.77,9.98,0,9.26,0h-4.72C2.03,0,0,2.03,0,4.54v8.45c0,3.3,2.68,5.98,5.98,5.98h8.88c2.51,0,4.54-2.03,4.54-4.54v-3.98c0-.69-.74-1.14-1.34-.81-.84.45-1.8.71-2.82.71Z"/>
  <path fill="#252422" d="M19.38,4.01c0-.11-.01-.22-.04-.33-.02-.11-.04-.22-.06-.32-.05-.23-.12-.45-.21-.66-.21-.51-.52-.96-.9-1.34-.09-.1-.19-.19-.3-.27-.1-.09-.21-.17-.32-.24-.23-.15-.47-.28-.72-.39-.5-.21-1.05-.33-1.63-.33-2.32,0-4.2,1.88-4.2,4.2,0,.18,0,.36.04.54.01.13.04.26.07.38.01.1.04.2.07.3.01.02.01.05.03.08.03.11.07.23.12.33.11.26.24.5.39.72.75,1.12,2.03,1.85,3.48,1.85,2.25,0,4.08-1.76,4.19-3.98.01-.07.01-.15.01-.22,0-.11,0-.21-.02-.32ZM16.97,6.09c-.16.21-.38.38-.67.49-.18.07-.41.12-.65.14v.87h-.88v-.88c-.23-.03-.44-.07-.62-.15-.29-.13-.51-.31-.66-.55-.15-.23-.23-.51-.23-.83h1c0,.12.03.24.1.35s.18.2.33.26c.14.07.33.1.56.1.3,0,.53-.05.7-.16.17-.11.25-.25.25-.43,0-.16-.07-.29-.21-.39-.14-.1-.36-.16-.67-.19l-.34-.03c-.48-.05-.86-.19-1.14-.44-.29-.24-.43-.59-.43-1.04,0-.31.07-.57.21-.78.14-.21.34-.36.6-.47.16-.06.33-.1.53-.12v-.69h.88v.69c.19.04.36.08.51.15.26.12.46.3.6.52.14.23.21.51.21.84h-.99c0-.13-.03-.25-.1-.35-.06-.1-.15-.18-.27-.25-.11-.06-.26-.09-.43-.09-.16,0-.3.02-.41.07-.11.05-.19.11-.25.19-.06.08-.09.18-.09.29,0,.14.05.26.15.37.11.11.28.18.52.21l.34.03c.54.04.97.19,1.29.43.32.25.49.6.49,1.05,0,.31-.08.57-.23.79Z"/>
  <path fill="#252422" d="M8.05,13.18c0,1.17-.95,2.12-2.12,2.12s-2.12-.95-2.12-2.12.95-2.12,2.12-2.12c.21,0,.42.03.61.09.72.21,1.27.79,1.45,1.53.04.17.06.33.06.51Z"/>
</svg>
