<?xml version="1.0" encoding="UTF-8"?>
<svg id="Capa_2" data-name="Capa 2" xmlns="http://www.w3.org/2000/svg" viewBox="0 0 91.51 18.97">
  <defs>
    <style>
      .cls-1 {
        fill: #91e25d;
      }

      .cls-2 {
        fill: #252422;
      }
    </style>
  </defs>
  <g id="Capa_1-2" data-name="Capa 1">
    <g>
      <polygon class="cls-2" points="30.51 8.59 30.51 6.86 23.6 6.86 23.6 8.59 26.07 8.59 26.07 15.62 28.04 15.62 28.04 8.59 30.51 8.59"/>
      <path class="cls-2" d="M32.5,9.72c-.3.38-.49.89-.56,1.52v-2.19h-1.54v6.58h1.93v-3.35c0-.54.14-.94.43-1.22.29-.28.7-.42,1.22-.42h.48v-1.67h-.25c-.75,0-1.33.25-1.72.76Z"/>
      <path class="cls-2" d="M39.12,9.22c-.46-.19-1.03-.29-1.7-.29-.23,0-.48,0-.74.01s-.52.02-.77.04-.47.03-.66.05v1.62c.25-.02.53-.03.83-.04.31-.01.61-.02.89-.03.29,0,.52-.01.7-.01.35,0,.61.08.77.25.16.16.24.42.24.76h0s-1.19.01-1.19.01c-.58,0-1.1.07-1.55.22-.45.15-.8.38-1.04.68-.25.31-.37.7-.37,1.18,0,.44.1.82.3,1.13.2.32.48.56.83.73s.77.25,1.24.25.84-.08,1.16-.25c.32-.17.56-.41.74-.72.08-.14.15-.3.2-.48v1.28h1.52v-4.03c0-.61-.12-1.11-.36-1.49-.24-.39-.59-.68-1.05-.87ZM38.06,14.34c-.17.08-.37.11-.58.11-.34,0-.59-.08-.77-.25-.18-.16-.27-.38-.27-.64,0-.28.09-.5.27-.67.18-.16.44-.25.77-.25h1.2v.53c-.02.33-.08.58-.19.77-.11.18-.25.31-.43.39Z"/>
      <path class="cls-2" d="M45.87,13.68c-.1.16-.25.29-.43.38s-.4.14-.65.14c-.34,0-.62-.08-.83-.23-.21-.16-.37-.38-.46-.66-.1-.28-.14-.6-.14-.95,0-.38.05-.71.16-.99s.26-.51.47-.67.48-.24.8-.24c.38,0,.67.1.88.31s.33.46.36.76h1.88c-.03-.54-.18-1.01-.46-1.42s-.64-.73-1.09-.95c-.46-.23-.98-.34-1.57-.34-.54,0-1.03.09-1.45.28-.42.18-.77.44-1.06.76-.28.32-.5.69-.64,1.1s-.22.84-.22,1.29v.23c0,.43.07.85.21,1.25.14.4.35.77.63,1.09.28.32.63.58,1.04.77s.91.29,1.49.29,1.12-.12,1.58-.35c.46-.23.84-.55,1.12-.97.28-.41.43-.89.46-1.43h-1.87c-.03.22-.1.41-.2.57Z"/>
      <polygon class="cls-2" points="55.2 9.04 53.18 9.04 50.79 12.17 50.79 6.86 48.86 6.86 48.86 15.62 50.79 15.62 50.79 12.55 51.43 12.55 53.49 15.62 55.66 15.62 53.04 11.85 55.2 9.04"/>
      <path class="cls-2" d="M59.98,10.82h1.38c-.01.85-.11,1.57-.32,2.15-.05.14-.11.28-.17.41l-2.15-2.28c-.35-.38-.61-.71-.77-1.01-.16-.29-.25-.62-.25-.97,0-.44.11-.77.34-1,.23-.23.63-.34,1.19-.34.16,0,.36,0,.61.02.25.01.5.03.76.05.26.02.46.04.62.05v-1.01c-.26-.03-.55-.06-.88-.08-.33-.02-.62-.04-.89-.04-.67,0-1.22.09-1.64.26-.42.17-.73.43-.93.77-.2.34-.29.78-.29,1.3,0,.3.04.57.13.83.07.21.18.42.33.65-.39.25-.73.55-1,.93-.32.44-.49.95-.49,1.53v.18c0,.49.13.93.38,1.33.26.4.62.72,1.08.95.46.23,1,.35,1.62.35s1.13-.12,1.6-.36c.27-.14.51-.33.74-.54l.64.68h1.36l-1.38-1.47c.23-.39.43-.82.56-1.33.15-.59.23-1.26.24-2h.73v-.91h-3.14v.91ZM60.1,14.38c-.41.32-.89.47-1.45.47-.36,0-.69-.07-.99-.2s-.54-.33-.72-.58c-.18-.26-.27-.57-.27-.95,0-.41.11-.78.33-1.12.17-.27.4-.47.66-.64.11.13.22.26.36.4l2.28,2.43c-.06.06-.12.12-.19.18Z"/>
      <path class="cls-2" d="M69.38,10.77c-.49-.22-1.05-.36-1.69-.41l-.67-.06c-.4-.03-.69-.14-.86-.32-.18-.18-.26-.4-.26-.64,0-.2.05-.38.14-.55.1-.16.24-.29.44-.38.2-.09.44-.14.73-.14.3,0,.56.05.76.16.2.11.36.25.46.43s.16.38.16.59h1.92c0-.57-.13-1.07-.4-1.49-.26-.43-.64-.76-1.13-1-.49-.24-1.08-.36-1.77-.36s-1.22.11-1.7.33c-.48.22-.85.53-1.12.94s-.4.9-.4,1.46c0,.78.26,1.4.78,1.87s1.22.74,2.09.82l.66.05c.54.05.92.15,1.16.32.24.16.36.39.36.67,0,.22-.06.42-.19.59s-.32.31-.56.4c-.25.1-.56.14-.92.14-.41,0-.74-.06-1-.17-.26-.12-.45-.27-.57-.46-.12-.19-.19-.4-.19-.62h-1.92c0,.57.14,1.07.43,1.51.28.44.7.78,1.24,1.04s1.21.38,2,.38c.74,0,1.38-.12,1.92-.35.54-.23.95-.56,1.24-.98s.44-.92.44-1.48-.14-1.01-.41-1.39c-.28-.38-.66-.68-1.15-.9Z"/>
      <path class="cls-2" d="M76.08,9.22c-.46-.19-1.03-.29-1.7-.29-.23,0-.48,0-.74.01s-.52.02-.77.04-.47.03-.66.05v1.62c.25-.02.53-.03.83-.04.31-.01.61-.02.89-.03.29,0,.52-.01.7-.01.35,0,.61.08.77.25.16.16.24.42.24.76h0s-1.19.01-1.19.01c-.58,0-1.1.07-1.55.22-.45.15-.8.38-1.04.68-.25.31-.37.7-.37,1.18,0,.44.1.82.3,1.13.2.32.48.56.83.73s.77.25,1.24.25.84-.08,1.16-.25c.32-.17.56-.41.74-.72.08-.14.15-.3.2-.48v1.28h1.52v-4.03c0-.61-.12-1.11-.36-1.49-.24-.39-.59-.68-1.05-.87ZM75.02,14.34c-.17.08-.37.11-.58.11-.34,0-.59-.08-.77-.25-.18-.16-.27-.38-.27-.64,0-.28.09-.5.27-.67.18-.16.44-.25.77-.25h1.2v.53c-.02.33-.08.58-.19.77-.11.18-.25.31-.43.39Z"/>
      <polygon class="cls-2" points="81.59 14.02 81.31 14.02 79.91 9.04 77.93 9.04 79.9 15.62 80.49 15.62 81.21 15.62 81.76 15.62 82.43 15.62 82.95 15.62 84.65 9.04 82.79 9.04 81.59 14.02"/>
      <path class="cls-2" d="M91.51,12.19c0-.6-.13-1.15-.38-1.66-.26-.51-.63-.92-1.11-1.24-.48-.32-1.08-.47-1.78-.47-.54,0-1.01.09-1.43.28-.42.19-.77.44-1.06.76-.28.32-.5.68-.65,1.09-.15.4-.22.83-.22,1.27v.24c0,.42.07.84.22,1.24.15.4.37.77.65,1.1.29.33.65.59,1.07.78.43.19.92.29,1.48.29s1.04-.1,1.46-.29c.42-.2.78-.47,1.06-.81.28-.34.47-.74.56-1.18h-1.76c-.08.2-.23.37-.46.5-.22.14-.51.2-.86.2-.38,0-.7-.08-.94-.24-.24-.16-.42-.39-.53-.68-.06-.16-.1-.34-.13-.53h4.8v-.65ZM86.86,11.27c.12-.29.3-.51.53-.66.23-.15.52-.22.85-.22s.6.07.82.22c.22.15.38.36.49.64.06.15.1.32.12.5h-2.95c.03-.17.07-.33.13-.47Z"/>
    </g>
    <g>
      <path class="cls-2" d="M19.38,4.01c0-.11-.01-.22-.04-.33-.02-.11-.04-.22-.06-.32-.05-.23-.12-.45-.21-.66-.21-.51-.52-.96-.9-1.34-.09-.1-.19-.19-.3-.27-.1-.09-.21-.17-.32-.24-.23-.15-.47-.28-.72-.39-.5-.21-1.05-.33-1.63-.33-2.32,0-4.2,1.88-4.2,4.2,0,.18,0,.36.04.54.01.13.04.26.07.38.01.1.04.2.07.3.01.02.01.05.03.08.03.11.07.23.12.33.11.26.24.5.39.72.75,1.12,2.03,1.85,3.48,1.85,2.25,0,4.08-1.76,4.19-3.98.01-.07.01-.15.01-.22,0-.11,0-.21-.02-.32ZM16.97,6.09c-.16.21-.38.38-.67.49-.18.07-.41.12-.65.14v.87h-.88v-.88c-.23-.03-.44-.07-.62-.15-.29-.13-.51-.31-.66-.55-.15-.23-.23-.51-.23-.83h1c0,.12.03.24.1.35s.18.2.33.26c.14.07.33.1.56.1.3,0,.53-.05.7-.16.17-.11.25-.25.25-.43,0-.16-.07-.29-.21-.39-.14-.1-.36-.16-.67-.19l-.34-.03c-.48-.05-.86-.19-1.14-.44-.29-.24-.43-.59-.43-1.04,0-.31.07-.57.21-.78.14-.21.34-.36.6-.47.16-.06.33-.1.53-.12v-.69h.88v.69c.19.04.36.08.51.15.26.12.46.3.6.52.14.23.21.51.21.84h-.99c0-.13-.03-.25-.1-.35-.06-.1-.15-.18-.27-.25-.11-.06-.26-.09-.43-.09-.16,0-.3.02-.41.07-.11.05-.19.11-.25.19-.06.08-.09.18-.09.29,0,.14.05.26.15.37.11.11.28.18.52.21l.34.03c.54.04.97.19,1.29.43.32.25.49.6.49,1.05,0,.31-.08.57-.23.79Z"/>
      <path class="cls-1" d="M15.23,10.34c-1.17,0-2.27-.34-3.19-.93-.22-.14-.51-.13-.7.05l-1.9,1.81c-.17.16-.21.41-.13.63.22.59.3,1.26.16,1.97-.27,1.45-1.46,2.61-2.91,2.86-2.36.4-4.4-1.49-4.25-3.81.12-1.76,1.57-3.23,3.33-3.36.61-.04,1.19.06,1.7.28.22.09.47.07.64-.1l1.92-1.83c.19-.18.22-.46.09-.69-.47-.85-.74-1.83-.74-2.86s.29-2.1.79-2.97C10.41.77,9.98,0,9.26,0h-4.72C2.03,0,0,2.03,0,4.54v8.45c0,3.3,2.68,5.98,5.98,5.98h8.88c2.51,0,4.54-2.03,4.54-4.54v-3.98c0-.69-.74-1.14-1.34-.81-.84.45-1.8.71-2.82.71Z"/>
      <path class="cls-2" d="M8.05,13.18c0,1.17-.95,2.12-2.12,2.12s-2.12-.95-2.12-2.12.95-2.12,2.12-2.12c.21,0,.42.03.61.09.72.21,1.27.79,1.45,1.53.04.17.06.33.06.51Z"/>
    </g>
  </g>
</svg>
